# xmcd
#
# Track frame offsets:
#	150
#	9442
#	20845
#	37432
#	53410
#	70410
#	88115
#	106357
#	125495
#	143832
#	162430
#
# Disc length: 2344 seconds
#
# Revision: 1
# Processed by: cddbd v1.5.2PL0 Copyright (c) Steve Scherf et al.
# Submitted via: audiograbber 1.83.01
#
DISCID=9a09260b
DTITLE=Boy Toy - BoyToy 2
DYEAR=1993
DGENRE=Blues
TTITLE0=Traktorboogie
TTITLE1=Skogning
TTITLE2=Kårkaill'n
TTITLE3=Tøffel
TTITLE4=Ha dæ heim
TTITLE5=Arbeidskar
TTITLE6=Button sælger'n
TTITLE7=Trasig forhold
TTITLE8=Vi ælska med månen
TTITLE9=Æ e lei
TTITLE10=Til minne om...
EXTD=
EXTT0=
EXTT1=
EXTT2=
EXTT3=
EXTT4=
EXTT5=
EXTT6=
EXTT7=
EXTT8=
EXTT9=
EXTT10=
PLAYORDER=
